<!-- icon666.com - MILLIONS vector ICONS FREE --><svg id="svg8" viewBox="0 0 8.4666665 8.4666669" xmlns="http://www.w3.org/2000/svg" xmlns:svg="http://www.w3.org/2000/svg"><g id="layer1" transform="translate(0 -288.533)"><path id="path869" d="m6.0859375 24.285156c-.6689053.716184-1.0878906 1.667673-1.0878906 2.716797 0 2.197304 1.8027055 4.001953 4 4.001953 2.1972941 0 4.0019531-1.804649 4.0019531-4.001953 0-.730985-.21517-1.408051-.5625-2h7.125c-.34733.591949-.560547 1.269015-.560547 2 0 2.197304 1.802706 4.001953 4 4.001953 2.197295 0 4.001954-1.804649 4.001953-4.001953.000001-2.197266-1.804658-4-4.001953-4h-14.9999999c-.571316 0-1.00922-.432673-1.0019531-1.013671.00714-.570525.4377057-.986329 1.0019531-.986329l15.9960939-.0059c1.220817 0 2.333095-.74268 2.789062-1.882813l4-10.0019529c.775459-1.9390078-.701108-4.109334-2.787109-4.109334h-4c-1.351719-.018898-1.351719 2.0185197 0 2h4c.741277 0 1.206034.6810521.931641 1.3671875l-4 10.0019534c-.151847.379653-.517565.625-.933594.625l-15.9960939.003906c-.3512641 0-.6852037.07446-1 .1875v-12.1855469h12.9980469c1.351719.018898 1.351719-2.0185197 0-2h-13.0019531v-1.0019531c0-1.6446992-1.3513912-2.9960938-2.9960938-2.9960938h-2.0019531c-.034482-.00179-.069033-.00179-.1035156 0-1.22987526.1544129-1.13574003 1.9660727.1035156 1.9921876h2.0019531c.5712832 0 .9960317.4326306.9960938 1.0039062l.0019531 17.978516c.0001017.935768.4277845 1.753095 1.0859375 2.30664zm2.9121094.716797c1.1164141 0 2.0000001.883603 2.0000001 2 0 1.116435-.883586 2.001953-2.0000001 2.001953-1.1164143 0-2-.885518-2-2.001953 0-1.116397.8835857-2 2-2zm14.0039061 0c1.116414 0 2 .883603 2 2 0 1.116435-.883586 2.001953-2 2.001953s-2-.885518-2-2.001953c0-1.116397.883586-2 2-2z" fill-rule="evenodd" transform="matrix(.265 0 0 .265 0 288.533)" font-variant-ligatures="normal" font-variant-position="normal" font-variant-caps="normal" font-variant-numeric="normal" font-variant-alternates="normal" font-feature-settings="normal" text-indent="0" text-align="start" text-decoration-line="none" text-decoration-style="solid" text-decoration-color="rgb(0,0,0)" text-transform="none" text-orientation="mixed" white-space="normal" shape-padding="0" isolation="auto" mix-blend-mode="normal" solid-color="rgb(0,0,0)" solid-opacity="1" vector-effect="none" paint-order="stroke fill markers"></path></g></svg>