<!-- icon666.com - MILLIONS vector ICONS FREE --><svg id="Layer_2" viewBox="0 0 16 16" xmlns="http://www.w3.org/2000/svg" data-name="Layer 2"><path d="m14.5405 10.2109a1.87 1.87 0 0 1 -1.0405-1.6826v-2.5283a5.5 5.5 0 0 0 -11 0v2.5283a1.87 1.87 0 0 1 -1.041 1.6826 1.7364 1.7364 0 0 0 .7768 3.2891h3.3148a2.5 2.5 0 0 0 4.8988 0h3.3148a1.7363 1.7363 0 0 0 .7763-3.2891zm-6.5405 4.2891a1.5032 1.5032 0 0 1 -1.4146-1h2.8292a1.5032 1.5032 0 0 1 -1.4146 1zm5.7642-2h-11.5284a.7362.7362 0 0 1 -.3291-1.3945 2.8651 2.8651 0 0 0 1.5933-2.5772v-2.5283a4.5 4.5 0 0 1 9 0v2.5283a2.8655 2.8655 0 0 0 1.5928 2.5772.736.736 0 0 1 -.3286 1.3945z"></path></svg>