<!-- icon666.com - MILLIONS vector ICONS FREE --><svg id="Layer_1" enable-background="new 0 0 1550 1550" viewBox="0 0 1550 1550" xmlns="http://www.w3.org/2000/svg"><g><g><g id="XMLID_1_"><path d="m1014.92 461.9v75.87c-7.25-2-14.87-3.08-22.76-3.08h-10.16v-22.78c0-4.16-1.53-8.17-4.3-11.26l-77.5-86.51c-3.09-3.45-7.47-5.49-12.11-5.61-4.63-.12-9.11 1.66-12.4 4.94-86.44 86.44-287.96 81.64-290.32 81.57-4.56-.14-8.99 1.58-12.26 4.76-3.28 3.18-5.13 7.55-5.13 12.11v22.78h-10.15c-7.88 0-15.52 1.08-22.77 3.08v-73.87c0-64.68 25.47-125.68 71.73-171.77 45.62-45.47 105.66-70.39 169.08-70.15 131.81.48 239.05 108.11 239.05 239.92z"></path><path d="m567.99 568.45v103.21h-10.15c-28.45 0-51.61-23.16-51.61-51.61 0-17.33 8.6-32.7 21.75-42.06 8.44-6 18.74-9.54 29.85-9.54z"></path><path d="m1022.02 577.99c13.14 9.36 21.74 24.73 21.74 42.06 0 28.45-23.15 51.61-51.6 51.61h-10.16v-103.21h10.16c11.12 0 21.42 3.54 29.86 9.54z"></path><path d="m775 7c423.48 0 768 344.52 768 768 0 226.73-98.76 430.83-255.53 571.54v-130.86c0-50.16-15.74-98.02-45.52-138.39-29.77-40.36-70.85-69.53-118.78-84.35l-222.27-68.7v-76.01c43.95-33.78 74.01-84.79 80-142.82h11.26c47.06 0 85.36-38.29 85.36-85.37 0-25.41-11.16-48.26-28.84-63.91v-94.23c0-72.92-28.35-141.53-79.83-193.18-51.47-51.65-119.96-80.23-192.85-80.49-.32 0-.64 0-.96 0-72.09 0-140.27 28.39-192.06 80-25.54 25.45-45.63 55.09-59.69 88.11-14.58 34.2-21.96 70.39-21.96 107.57v92.23c-17.68 15.64-28.84 38.49-28.84 63.91 0 47.07 38.29 85.37 85.37 85.37h11.26c5.97 58.03 36.04 109.04 80 142.82v76.01l-222.28 68.7c-47.93 14.82-89 43.99-118.78 84.35-29.77 40.37-45.51 88.22-45.51 138.39v130.86c-156.79-140.72-255.55-344.82-255.55-571.55 0-423.48 344.52-768 768-768z"></path><path d="m948.24 551.57v132.46c0 58.6-29.25 110.51-73.92 141.87-28.15 19.76-62.4 31.37-99.32 31.37s-71.19-11.6-99.33-31.37c-44.67-31.36-73.92-83.27-73.92-141.87v-132.46-22.73c21-.3 58.91-1.9 102.31-8.69 79.73-12.47 140.96-36.25 182.36-70.79l61.83 69.01z"></path><path d="m867.15 869.36v61.41l-92.15 106.84-92.15-106.83v-61.41c27.77 13.86 59.07 21.67 92.15 21.67 33.08-.01 64.38-7.81 92.15-21.68z"></path><path d="m1253.71 1215.68v159.45c-42.4 33.9-88.45 63.39-137.45 87.8v-216.01c0-9.33-7.56-16.88-16.88-16.88-9.33 0-16.88 7.55-16.88 16.88v231.8c-94.2 41.33-198.22 64.28-307.5 64.28-108.59 0-211.97-22.65-305.7-63.48v-232.59c0-9.33-7.56-16.88-16.88-16.88-9.33 0-16.88 7.55-16.88 16.88v216.9c-49.69-24.58-96.34-54.38-139.25-88.69v-159.45c0-87.96 56.46-164.51 140.5-190.48l223.37-69.05 102.06 118.32c3.21 3.72 7.87 5.85 12.79 5.85 4.91 0 9.57-2.13 12.78-5.85l102.06-118.32 223.37 69.05c84.02 25.96 140.49 102.51 140.49 190.47z"></path></g></g></g></svg>