<!-- icon666.com - MILLIONS vector ICONS FREE --><svg version="1.1" id="Layer_1" xmlns="http://www.w3.org/2000/svg" xmlns:xlink="http://www.w3.org/1999/xlink" x="0px" y="0px" viewBox="0 0 512 512" style="enable-background:new 0 0 512 512;" xml:space="preserve"><g><g><g><path d="M337.754,107.702c4.296,1.216,8.765-1.284,9.98-5.579c1.215-4.297-1.284-8.764-5.58-9.979 c-29.9-8.453-66.167,3.032-92.397,29.26c-26.229,26.227-37.717,62.49-29.262,92.383c1.007,3.561,4.249,5.886,7.776,5.886 c0.729,0,1.469-0.099,2.204-0.307c4.297-1.215,6.795-5.683,5.58-9.979c-6.887-24.349,2.98-54.397,25.138-76.55 C283.349,110.683,313.405,100.82,337.754,107.702z"></path><path d="M264.935,51.279c-19.36,7.601-36.693,18.97-51.516,33.791c-58.888,58.881-58.888,154.686,0,213.568 c28.528,28.521,66.455,44.23,106.798,44.23c40.342,0,78.269-15.708,106.797-44.231c58.888-58.881,58.888-154.687,0-213.566 c-16.95-16.947-37.892-29.747-60.567-37.015c-21.932-7.03-45.594-8.962-68.437-5.585c-4.416,0.653-7.469,4.763-6.814,9.179 c0.652,4.417,4.779,7.476,9.18,6.814c42.728-6.315,84.71,7.55,115.201,38.037c52.583,52.576,52.583,138.125,0,190.701 c-25.472,25.47-59.339,39.496-95.361,39.496c-36.023,0-69.891-14.027-95.362-39.495c-52.583-52.576-52.583-138.125,0-190.701 c13.241-13.24,28.714-23.391,45.991-30.174c4.156-1.633,6.203-6.324,4.571-10.48C273.782,51.69,269.085,49.65,264.935,51.279z"></path><path d="M455.892,56.193C419.651,19.956,371.466,0,320.216,0c-51.253,0-99.437,19.956-135.676,56.19 c-68.991,68.982-74.354,177.863-16.1,253.054l-30.154,30.151c-2.928-0.947-6.019-1.439-9.185-1.439 c-7.939,0-15.401,3.09-21.011,8.701l-12.888,12.885c-3.158,3.157-3.158,8.276-0.001,11.433s8.277,3.158,11.434,0.001 l12.889-12.886c2.557-2.557,5.958-3.965,9.576-3.965c3.619,0,7.019,1.408,9.576,3.966l15.3,15.297 c5.271,5.269,5.271,13.842,0,19.111l-99.392,99.379c-5.279,5.281-13.872,5.28-19.153,0.001L20.132,476.58 c-2.554-2.552-3.96-5.947-3.96-9.556c0-3.608,1.406-7.002,3.96-9.556l66.288-66.281c3.157-3.157,3.157-8.275,0-11.433 c-3.158-3.156-8.277-3.156-11.435,0L8.698,446.036C3.089,451.643,0,459.097,0,467.025s3.088,15.383,8.696,20.989l15.299,15.299 C29.788,509.104,37.398,512,45.006,512c7.61,0,15.22-2.896,21.013-8.688l99.392-99.379c8.147-8.147,10.559-19.891,7.236-30.167 l30.143-30.14c26.488,20.587,57.658,33.712,91.36,38.308c40.449,5.517,82.348-2.163,117.985-21.625 c3.92-2.14,5.361-7.052,3.221-10.97c-2.14-3.917-7.054-5.358-10.972-3.22c-67.924,37.09-153.625,24.738-208.41-30.043 c-68.508-68.499-68.508-179.953,0-248.453c33.185-33.182,77.309-51.457,124.241-51.457c46.932,0,91.054,18.275,124.239,51.456 c68.507,68.5,68.507,179.955,0,248.453c-4.634,4.635-9.561,9.045-14.644,13.112c-3.487,2.79-4.052,7.877-1.262,11.363 c2.79,3.487,7.877,4.052,11.365,1.262c5.547-4.437,10.922-9.249,15.978-14.304C530.703,252.708,530.703,130.994,455.892,56.193z M184.538,327.51c1.924,1.924,3.879,3.801,5.868,5.632l-26.906,26.904L152,348.548l26.907-26.906 C180.736,323.629,182.612,325.583,184.538,327.51z"></path></g></g></g></svg>