<!-- icon666.com - MILLIONS vector ICONS FREE --><svg id="Capa_1" enable-background="new 0 0 512 512" viewBox="0 0 512 512" xmlns="http://www.w3.org/2000/svg"><g><g><path d="m413.266 498.314-157.471-82.778-157.471 82.778 30.088-175.342-128.412-124.174 177.06-25.576 78.735-159.536 78.735 159.536 177.47 25.576-128.822 124.175z" fill="#ffdf40"></path></g><path d="m413.266 498.314-30.088-175.341 128.822-124.175-177.47-25.576-78.735-159.536v401.85z" fill="#ffbe40"></path><g><g><path d="m328.612 383.046-72.817-38.262-72.817 38.262 13.901-81.079-58.901-57.422 81.401-11.836 36.416-73.755 36.416 73.755 81.401 11.836-58.901 57.422z" fill="#ffbe40"></path></g></g><path d="m328.612 383.046-13.901-81.079 58.901-57.422-81.401-11.836-36.416-73.755v185.83z" fill="#ff9f40"></path></g></svg>